<svg width="14" height="14" viewBox="0 0 14 14" fill="none" xmlns="http://www.w3.org/2000/svg">
<g clip-path="url(#clip0_34_303)">
<path d="M10.5 6.41663C10.5 6.80746 10.5 7.19246 10.5 7.58329C11.2 7.58329 12.11 7.58329 12.8333 7.58329C12.8333 7.19246 12.8333 6.80746 12.8333 6.41663C12.11 6.41663 11.2 6.41663 10.5 6.41663Z" fill="#DF1F26"/>
<path d="M9.33331 10.2725C9.89331 10.6867 10.6225 11.235 11.2 11.6667C11.4333 11.3575 11.6666 11.0425 11.9 10.7334C11.3225 10.3017 10.5933 9.75337 10.0333 9.33337C9.79998 9.64837 9.56665 9.96337 9.33331 10.2725Z" fill="#DF1F26"/>
<path d="M11.9 3.26671C11.6666 2.95754 11.4333 2.64254 11.2 2.33337C10.6225 2.76504 9.89331 3.31337 9.33331 3.73337C9.56665 4.04254 9.79998 4.35754 10.0333 4.66671C10.5933 4.24671 11.3225 3.70421 11.9 3.26671Z" fill="#DF1F26"/>
<path d="M2.33335 5.25C1.69169 5.25 1.16669 5.775 1.16669 6.41667V7.58333C1.16669 8.225 1.69169 8.75 2.33335 8.75H2.91669V11.0833H4.08335V8.75H4.66669L7.58335 10.5V3.5L4.66669 5.25H2.33335ZM5.26752 6.2475L6.41669 5.55917V8.44083L5.26752 7.7525L4.98752 7.58333H4.66669H2.33335V6.41667H4.66669H4.98752L5.26752 6.2475Z" fill="#DF1F26"/>
<path d="M9.04169 6.99994C9.04169 6.22411 8.70335 5.52411 8.16669 5.04578V8.94828C8.70335 8.47578 9.04169 7.77578 9.04169 6.99994Z" fill="#DF1F26"/>
</g>
<defs>
<clipPath id="clip0_34_303">
<rect width="14" height="14" fill="white"/>
</clipPath>
</defs>
</svg>
