<svg width="40" height="40" viewBox="0 0 40 40" fill="none" xmlns="http://www.w3.org/2000/svg">
<rect width="40" height="40" rx="20" fill="white"/>
<path d="M22.7255 10H17.9412C17.251 10 17 10.6429 17 11.4286H23.6667C23.6667 10.6429 23.4157 10 22.7255 10ZM17.9843 15.1563C18.2824 15.5491 18.451 16.0491 18.451 16.5714V28.442C18.451 29.4196 19.1529 30 20.0157 30H20.6549C21.5137 30 22.2196 29.4241 22.2196 28.442V16.5714C22.2196 16.0491 22.3882 15.5536 22.6863 15.1563C23.2902 14.3571 23.6667 13.6161 23.6667 12.1429H17C17 13.7054 17.3765 14.3571 17.9843 15.1563ZM19.2353 19.2098C19.2353 18.5134 19.7294 17.9464 20.3333 17.9464C20.9373 17.9464 21.4314 18.5134 21.4314 19.2098V20.7902C21.4314 21.4866 20.9373 22.0536 20.3333 22.0536C19.7294 22.0536 19.2353 21.4866 19.2353 20.7902V19.2098V19.2098Z" fill="#24A562"/>
<path d="M19.5508 20.76C19.5508 20.9968 19.6334 21.2239 19.7805 21.3914C19.9276 21.5588 20.1271 21.6529 20.3351 21.6529C20.5431 21.6529 20.7426 21.5588 20.8897 21.3914C21.0368 21.2239 21.1194 20.9968 21.1194 20.76C21.1194 20.5232 21.0368 20.2961 20.8897 20.1287C20.7426 19.9613 20.5431 19.8672 20.3351 19.8672C20.1271 19.8672 19.9276 19.9613 19.7805 20.1287C19.6334 20.2961 19.5508 20.5232 19.5508 20.76Z" fill="#054A25"/>
</svg>
